<svg width="13" height="14" viewBox="0 0 13 14" fill="none" xmlns="http://www.w3.org/2000/svg">
<path d="M0 7C0 3.2705 2.85572 0.5 6.49998 0.5C10.1443 0.5 13 3.29181 13 7C13 10.7082 10.1656 13.5 6.49998 13.5C2.8344 13.5 0 10.6869 0 7ZM11.8492 7C11.8492 3.90984 9.50491 1.6295 6.49998 1.6295C3.49506 1.6295 1.15081 3.90984 1.15081 7C1.15081 10.0902 3.49506 12.3705 6.49998 12.3705C9.50491 12.3705 11.8492 10.0688 11.8492 7ZM8.46067 5.82786C8.26887 5.12459 7.62951 4.54916 6.64918 4.54916C5.3918 4.54916 4.58196 5.46559 4.58196 6.9787C4.58196 8.49181 5.41311 9.4295 6.64918 9.4295C7.58689 9.4295 8.26887 9.00327 8.46067 8.19344H9.59018C9.39837 9.49343 8.31148 10.4524 6.64918 10.4524C4.68852 10.4524 3.40982 9.13116 3.40982 6.9787C3.40982 4.82624 4.68852 3.52622 6.64918 3.52622C8.3541 3.52622 9.41967 4.54918 9.61148 5.82786H8.48197H8.46067Z" fill="#616161"/>
</svg>
