<svg width="93" height="16" viewBox="0 0 93 16" fill="none" xmlns="http://www.w3.org/2000/svg">
<path d="M92.8861 15.2927H85.2598V14.03H92.8861V15.2927Z" fill="#616161"/>
<path d="M92.8868 7.74536V8.99669H92.2074C92.7339 9.444 93 10.0385 93 10.7859C93 11.3351 92.8472 11.7994 92.5471 12.1788C92.2414 12.5582 91.8224 12.7507 91.2788 12.7507C90.6844 12.7507 90.2371 12.5468 89.9313 12.1335C89.6256 11.7202 89.4727 11.1823 89.4727 10.5141C89.4727 9.97624 89.552 9.46665 89.7049 8.99103H89.603C89.218 8.99103 88.9292 9.10993 88.7254 9.34208C88.5216 9.57423 88.4197 9.91396 88.4197 10.3499C88.4197 10.8539 88.5329 11.3748 88.765 11.9297L87.7516 12.2751C87.4458 11.5899 87.293 10.8935 87.293 10.1744C87.293 9.37605 87.4968 8.77021 87.8988 8.36253C88.3008 7.95486 88.8783 7.75102 89.62 7.75102H92.8925L92.8868 7.74536ZM90.8938 8.96838H90.5825C90.4352 9.34208 90.3616 9.76674 90.3616 10.231C90.3616 10.6274 90.4409 10.9388 90.5938 11.1596C90.7466 11.3804 90.9618 11.4937 91.2392 11.4937C91.4883 11.4937 91.6865 11.3918 91.8337 11.1879C91.9809 10.9841 92.0545 10.7293 92.0545 10.4235C92.0545 9.99889 91.9469 9.64784 91.7318 9.37605C91.5166 9.09861 91.2392 8.96272 90.8938 8.96272V8.96838Z" fill="#616161"/>
<path d="M92.9992 3.10796C92.9992 3.86668 92.6765 4.48952 92.0254 4.97646H92.8803V6.23911H85.2539V4.97646H88.2829C87.5922 4.48952 87.2468 3.86668 87.2468 3.10796C87.2468 2.41152 87.5073 1.81133 88.0282 1.30174C88.549 0.792149 89.2511 0.537354 90.1343 0.537354C91.0176 0.537354 91.7026 0.792149 92.2179 1.30174C92.7387 1.81133 92.9992 2.41152 92.9992 3.10796ZM91.9008 3.40239C91.9008 2.95508 91.7366 2.58138 91.4082 2.28129C91.0798 1.97553 90.6496 1.82832 90.1117 1.82832C89.5738 1.82832 89.1662 1.9812 88.8378 2.28695C88.5094 2.5927 88.3452 2.9664 88.3452 3.40239C88.3452 3.83837 88.5151 4.21773 88.8491 4.53481C89.1832 4.85189 89.6135 5.01043 90.1343 5.01043C90.6552 5.01043 91.0742 4.85189 91.4026 4.53481C91.731 4.21773 91.9008 3.83837 91.9008 3.40239Z" fill="#616161"/>
<path d="M17.3809 0.571289H13.5762V15.3777H24.4864V12.0371H17.3809V0.571289Z" fill="#616161"/>
<path d="M46.7384 10.2139L43.0582 0.571289H38.8516L44.8983 15.4627H48.5162L54.5856 0.571289H50.4355L46.7384 10.2139Z" fill="#616161"/>
<path d="M79.5355 0.571289V8.71342L73.0641 0.571289H69.8086V15.3777H73.551V7.19031L80.1073 15.3777H83.2609V0.571289H79.5355Z" fill="#616161"/>
<path d="M67.4823 0.571289H56.2324V3.91194H67.4823V0.571289Z" fill="#616161"/>
<path d="M59.5729 8.22659L56.2324 6.30713V9.64778H67.4823V6.30713H59.5729V8.22659Z" fill="#616161"/>
<path d="M59.5729 13.9566L56.2324 12.0371V15.3778H67.4823V12.0371H59.5729V13.9566Z" fill="#616161"/>
<path d="M0 0.571289V3.91194V6.30702V9.64768V12.0371V15.3777H3.34044H11.6123V12.0371H3.34044V9.64768H11.6123V6.30702H3.34044V3.91194H11.6123V0.571289H3.34044H0Z" fill="#616161"/>
<path d="M26.457 0.571289V3.91194V6.30702V9.64768V12.0371V15.3777H29.7975H37.7069V12.0371H29.7975V9.64768H37.7069V6.30702H29.7975V3.91194H37.7069V0.571289H29.7975H26.457Z" fill="#616161"/>
</svg>
