<svg width="37" height="46" viewBox="0 0 37 46" fill="none" xmlns="http://www.w3.org/2000/svg">
<path d="M0 4.6C0 3.38 0.487275 2.20998 1.35463 1.34731C2.22199 0.484641 3.39837 0 4.625 0H23.125C23.7383 0.000130266 24.3264 0.242536 24.7599 0.6739L36.3224 12.1739C36.7561 12.6051 36.9999 13.1901 37 13.8V41.4C37 42.62 36.5127 43.79 35.6454 44.6527C34.778 45.5154 33.6016 46 32.375 46H4.625C3.39837 46 2.22199 45.5154 1.35463 44.6527C0.487275 43.79 0 42.62 0 41.4V4.6ZM31.4176 13.8L23.125 5.5522V13.8H31.4176ZM18.5 4.6H4.625V41.4H32.375V18.4H20.8125C20.1992 18.4 19.611 18.1577 19.1773 17.7263C18.7436 17.295 18.5 16.71 18.5 16.1V4.6ZM9.25 25.3C9.25 24.69 9.49364 24.105 9.92732 23.6737C10.361 23.2423 10.9492 23 11.5625 23H25.4375C26.0508 23 26.639 23.2423 27.0727 23.6737C27.5064 24.105 27.75 24.69 27.75 25.3C27.75 25.91 27.5064 26.495 27.0727 26.9263C26.639 27.3577 26.0508 27.6 25.4375 27.6H11.5625C10.9492 27.6 10.361 27.3577 9.92732 26.9263C9.49364 26.495 9.25 25.91 9.25 25.3ZM9.25 34.5C9.25 33.89 9.49364 33.305 9.92732 32.8737C10.361 32.4423 10.9492 32.2 11.5625 32.2H25.4375C26.0508 32.2 26.639 32.4423 27.0727 32.8737C27.5064 33.305 27.75 33.89 27.75 34.5C27.75 35.11 27.5064 35.695 27.0727 36.1263C26.639 36.5577 26.0508 36.8 25.4375 36.8H11.5625C10.9492 36.8 10.361 36.5577 9.92732 36.1263C9.49364 35.695 9.25 35.11 9.25 34.5Z" fill="#A19178"/>
</svg>
