<svg width="236" height="46" viewBox="0 0 236 46" fill="none" xmlns="http://www.w3.org/2000/svg">
<path d="M73.2781 19.9455L77.3702 26.6006H74.1956L70.2637 20.1057H63.7542V26.6006H61.002V10.742H71.6035C73.4966 10.742 74.88 11.1206 75.7537 11.8488C76.6275 12.5915 77.0644 13.7856 77.0644 15.4166C77.0644 17.9067 75.7975 19.3776 73.2781 19.829V19.9309V19.9455ZM71.385 17.7029C72.2879 17.7029 72.9578 17.5281 73.3801 17.1495C73.8024 16.7854 74.0208 16.2029 74.0208 15.4311C74.0208 14.6593 73.8024 14.0768 73.3801 13.7128C72.9578 13.3487 72.2879 13.174 71.385 13.174H63.7397V17.7029H71.385Z" fill="#082849"/>
<path d="M82.4818 13.1303V17.1641H93.3018V19.4795H82.4818V24.2269H93.9279V26.6006H79.7295V10.742H93.6367V13.1303H82.4818Z" fill="#082849"/>
<path d="M111.025 26.6006L109.335 23.0182H100.146L98.4572 26.6006H95.501L103.175 10.742H106.379L114.068 26.6006H111.025ZM101.253 20.6882H108.229L104.792 13.3778H104.69L101.253 20.6882Z" fill="#082849"/>
<path d="M130.116 26.6006H115.889V10.742H118.641V24.2123H130.116V26.6006Z" fill="#082849"/>
<path d="M142.946 13.1303V17.1641H153.766V19.4795H142.946V24.2269H154.392V26.6006H140.193V10.742H154.101V13.1303H142.946Z" fill="#082849"/>
<path d="M168.532 15.5622C168.459 13.5963 166.857 12.606 163.712 12.606C160.901 12.606 159.488 13.3633 159.488 14.8923C159.488 15.5185 159.692 15.9554 160.085 16.2321C160.479 16.5088 161.09 16.6981 161.891 16.8L167.571 17.4845C168.925 17.6447 170.017 18.067 170.818 18.7368C171.619 19.4067 172.027 20.4843 172.027 21.9697C172.027 25.3191 169.333 26.9938 163.959 26.9938C158.585 26.9938 155.95 25.0715 155.862 21.227H158.818C158.848 21.9115 158.993 22.4794 159.27 22.9454C159.547 23.4114 159.925 23.7755 160.42 24.023C160.916 24.2706 161.44 24.4454 162.008 24.5473C162.576 24.6492 163.245 24.7075 164.003 24.7075C165.532 24.7075 166.741 24.489 167.614 24.0376C168.503 23.5862 168.939 22.96 168.925 22.1153C168.925 21.3581 168.692 20.8338 168.24 20.5135C167.804 20.2076 167.148 19.9892 166.274 19.8727L160.814 19.1737C159.459 18.999 158.382 18.5912 157.595 17.965C156.809 17.3388 156.43 16.3632 156.43 15.0234C156.43 13.4215 157.086 12.2419 158.411 11.4556C159.736 10.6838 161.498 10.2906 163.726 10.2906C164.804 10.2906 165.794 10.378 166.682 10.5527C167.571 10.7275 168.372 11.0187 169.114 11.4119C169.842 11.8051 170.425 12.3439 170.833 13.0429C171.255 13.7419 171.459 14.5574 171.473 15.5039H168.517L168.532 15.5622Z" fill="#082849"/>
<path d="M189.196 10.742V13.1594H182.512V26.6006H179.759V13.1594H173.061V10.742H189.196Z" fill="#082849"/>
<path d="M202.681 26.6006L200.992 23.0182H191.803L190.113 26.6006H187.157L194.832 10.742H198.035L205.724 26.6006H202.681ZM192.909 20.6882H199.885L196.448 13.3778H196.346L192.909 20.6882Z" fill="#082849"/>
<path d="M219.821 10.742V13.1594H213.137V26.6006H210.384V13.1594H203.686V10.742H219.821Z" fill="#082849"/>
<path d="M224.554 13.1303V17.1641H235.359V19.4795H224.554V24.2269H236V26.6006H221.787V10.742H235.694V13.1303H224.554Z" fill="#082849"/>
<path d="M106.845 34.9016C106.816 34.4648 106.612 34.1152 106.248 33.8386C105.884 33.5619 105.389 33.4308 104.763 33.4308C104.136 33.4308 103.554 33.6347 103.117 34.0279C102.68 34.4211 102.462 35.0036 102.462 35.7754C102.462 36.5472 102.68 37.1152 103.117 37.5083C103.554 37.9015 104.093 38.1054 104.763 38.1054C105.433 38.1054 105.913 37.9598 106.263 37.6685C106.627 37.3773 106.816 36.9841 106.845 36.4889H108.098C108.068 37.2753 107.763 37.887 107.151 38.3384C106.554 38.8044 105.753 39.0229 104.763 39.0229C104.122 39.0229 103.539 38.9063 103.015 38.6733C102.505 38.4403 102.083 38.0763 101.763 37.5666C101.442 37.0569 101.282 36.4599 101.282 35.7463C101.282 35.0327 101.442 34.4357 101.763 33.926C102.083 33.4163 102.505 33.0522 103.015 32.8192C103.525 32.5862 104.107 32.4697 104.763 32.4697C105.738 32.4697 106.525 32.6882 107.122 33.1396C107.719 33.5765 108.039 34.1735 108.083 34.8871H106.845V34.9016Z" fill="#082849"/>
<path d="M120.738 33.5761V35.178H124.99V36.0808H120.738V37.9448H125.238V38.8769H119.66V32.6441H125.121V33.5761H120.738Z" fill="#082849"/>
<path d="M142.086 32.6441H143.12V38.8769H141.882L137.921 34.0567H137.878V38.8769H136.858V32.6441H138.111L142.043 37.4206H142.086V32.6441Z" fill="#082849"/>
<path d="M160.756 32.6441V33.6052H158.134V38.8769H157.042V33.6052H154.421V32.6441H160.756Z" fill="#082849"/>
<path d="M173.148 33.5761V35.178H177.386V36.0808H173.148V37.9448H177.633V38.8769H172.056V32.6441H177.517V33.5761H173.148Z" fill="#082849"/>
<path d="M194.075 36.2556L195.677 38.8769H194.424L192.881 36.3284H190.318V38.8769H189.24V32.6441H193.405C194.148 32.6441 194.687 32.7897 195.036 33.081C195.386 33.3722 195.546 33.8382 195.546 34.4789C195.546 35.4546 195.051 36.0371 194.06 36.2119V36.2556H194.075ZM193.332 35.3673C193.682 35.3673 193.944 35.2945 194.119 35.1489C194.279 35.0032 194.366 34.7848 194.366 34.4789C194.366 34.1731 194.279 33.9401 194.119 33.8091C193.958 33.6635 193.696 33.5907 193.332 33.5907H190.332V35.3673H193.332Z" fill="#082849"/>
<path d="M36.9306 43.0273H28.6445L31.557 33.7655L28.6445 16.6545H36.9306L45.6098 33.8237L36.9306 43.0273Z" fill="#A19178"/>
<path d="M2.8252 37.1876V28.9015L12.1015 31.7994L29.2125 28.9015V37.1876L12.0432 45.8668L2.8252 37.1876Z" fill="#A19178"/>
<path d="M8.67924 3.08246H16.9653L14.0528 12.3442L16.9508 29.4552H8.66471L0 12.3006L8.67924 3.08246Z" fill="#A19178"/>
<path d="M42.7701 8.9365V17.2226L33.5084 14.3101L16.3975 17.208V8.92192L33.5666 0.242676L42.7701 8.9365Z" fill="#A19178"/>
<path d="M43.5273 43.77C43.5273 42.5759 44.4448 41.673 45.6098 41.673C46.7748 41.673 47.6922 42.5613 47.6922 43.77C47.6922 44.9787 46.7748 45.867 45.6098 45.867C44.4448 45.867 43.5273 44.9641 43.5273 43.77ZM47.3281 43.77C47.3281 42.7797 46.5855 42.0516 45.6098 42.0516C44.6341 42.0516 43.8914 42.7797 43.8914 43.77C43.8914 44.7602 44.6486 45.4883 45.6098 45.4883C46.5709 45.4883 47.3281 44.7457 47.3281 43.77ZM46.2359 43.3914C46.1777 43.1584 45.9738 42.9836 45.6535 42.9836C45.2457 42.9836 44.9836 43.2749 44.9836 43.77C44.9836 44.2651 45.2457 44.5564 45.6535 44.5564C45.9593 44.5564 46.1777 44.4108 46.2359 44.1632H46.6C46.5418 44.5855 46.1923 44.8913 45.6535 44.8913C45.0273 44.8913 44.605 44.469 44.605 43.77C44.605 43.071 45.0127 42.6633 45.6389 42.6633C46.1923 42.6633 46.5272 42.9982 46.5854 43.4059H46.2214L46.2359 43.3914Z" fill="#D2D2D2"/>
</svg>
