<svg width="48" height="47" viewBox="0 0 48 47" fill="none" xmlns="http://www.w3.org/2000/svg">
<path d="M37.1696 43.9838H28.8301L31.7614 34.6623L28.8301 17.4409H37.1696L45.9049 34.7209L37.1696 43.9838Z" fill="#A19178"/>
<path d="M2.84375 38.1066V29.767L12.1799 32.6837L29.4013 29.767V38.1066L12.1213 46.8418L2.84375 38.1066Z" fill="#A19178"/>
<path d="M8.73525 3.78094H17.0748L14.1435 13.1025L17.0602 30.3239H8.72062L0 13.0585L8.73525 3.78094Z" fill="#A19178"/>
<path d="M43.0448 9.67302V18.0126L33.7233 15.0813L16.502 17.9979V9.65835L33.7819 0.923096L43.0448 9.67302Z" fill="#A19178"/>
<path d="M43.8086 44.7311C43.8086 43.5292 44.7319 42.6205 45.9045 42.6205C47.077 42.6205 48.0003 43.5146 48.0003 44.7311C48.0003 45.9476 47.077 46.8416 45.9045 46.8416C44.7319 46.8416 43.8086 45.9329 43.8086 44.7311ZM47.6339 44.7311C47.6339 43.7344 46.8864 43.0016 45.9045 43.0016C44.9225 43.0016 44.175 43.7344 44.175 44.7311C44.175 45.7277 44.9371 46.4605 45.9045 46.4605C46.8718 46.4605 47.6339 45.7131 47.6339 44.7311ZM46.5347 44.35C46.4761 44.1155 46.2709 43.9397 45.9484 43.9397C45.538 43.9397 45.2742 44.2328 45.2742 44.7311C45.2742 45.2294 45.538 45.5225 45.9484 45.5225C46.2562 45.5225 46.4761 45.376 46.5347 45.1268H46.9011C46.8425 45.5519 46.4907 45.8597 45.9484 45.8597C45.3182 45.8597 44.8932 45.4346 44.8932 44.7311C44.8932 44.0276 45.3035 43.6172 45.9338 43.6172C46.4907 43.6172 46.8278 43.9543 46.8864 44.3647H46.52L46.5347 44.35Z" fill="#D2D2D2"/>
</svg>
