<svg display="none" xmlns="http://www.w3.org/2000/svg">

	<symbol id="menu-icon1" viewBox="0 0 18 18">
		<path
			d="M16 0H2C1.46957 0 0.960859 0.210714 0.585786 0.585786C0.210714 0.960859 0 1.46957 0 2V16C0 16.5304 0.210714 17.0391 0.585786 17.4142C0.960859 17.7893 1.46957 18 2 18H16C16.5304 18 17.0391 17.7893 17.4142 17.4142C17.7893 17.0391 18 16.5304 18 16V2C18 1.46957 17.7893 0.960859 17.4142 0.585786C17.0391 0.210714 16.5304 0 16 0ZM16 2V16H2V2H16ZM7 14L3 10L4.41 8.58L7 11.17L13.59 4.58L15 6" />
	</symbol>

	<symbol id="menu-icon2" viewBox="0 0 22 18">
		<path
			d="M11 0L0 6L4 8.18V14.18L11 18L18 14.18V8.18L20 7.09V14H22V6L11 0ZM17.82 6L11 9.72L4.18 6L11 2.28L17.82 6ZM16 13L11 15.72L6 13V9.27L11 12L16 9.27V13Z" />
	</symbol>

	<symbol id="menu-icon3" viewBox="0 0 19 20">
		<path fill-rule="evenodd" clip-rule="evenodd"
			d="M7.733 4.42339C9.82615 1.63253 13.9108 0.490327 17.1789 1.08452C17.5887 1.15902 17.9093 1.47969 17.9839 1.88945C18.5781 5.15672 17.4358 9.24118 14.6452 11.3352L13 12.5685V14.7354C13 15.8172 12.6491 16.8699 12 17.7354L11.2999 18.6685C11.1259 18.9004 10.8599 19.0454 10.5708 19.0659C10.2817 19.0864 9.99786 18.9805 9.7929 18.7755L8.7929 17.7755C8.40237 17.385 8.40237 16.7518 8.7929 16.3613C9.18342 15.9708 9.81659 15.9708 10.2071 16.3613L10.3919 16.5461L10.4 16.5354C10.7895 16.0161 11 15.3845 11 14.7354V14.0116L9.08124 15.3821C8.68346 15.6663 8.13856 15.6212 7.7929 15.2755L3.7929 11.2755C3.44723 10.9298 3.40214 10.3849 3.68627 9.98715L5.05681 8.06839H4.333C3.68395 8.06839 3.0524 8.27889 2.53314 8.66829L2.52227 8.67645L2.70711 8.86129C3.09763 9.25181 3.09763 9.88498 2.70711 10.2755C2.31659 10.666 1.68342 10.666 1.2929 10.2755L0.292896 9.2755C0.0879332 9.07054 -0.0180104 8.78672 0.00251276 8.49759C0.023036 8.20845 0.168007 7.94245 0.399866 7.7685L1.33287 7.0685C2.19835 6.41938 3.25115 6.06839 4.333 6.06839H6.49986L7.733 4.42339ZM7.80705 7.65899L5.80612 10.4603L8.6081 13.2623L11.4094 11.2614L13.4448 9.73555C15.3237 8.32527 16.3241 5.49048 16.1101 2.95832C13.5768 2.74424 10.7422 3.74442 9.333 5.62339L7.80705 7.65899ZM11.0858 5.15418C11.4609 4.77911 11.9696 4.56839 12.5 4.56839C13.0304 4.56839 13.5391 4.77911 13.9142 5.15418C14.2893 5.52925 14.5 6.03796 14.5 6.56839C14.5 7.09882 14.2893 7.60753 13.9142 7.98261C13.5391 8.35768 13.0304 8.56839 12.5 8.56839C11.9696 8.56839 11.4609 8.35768 11.0858 7.98261C10.7107 7.60753 10.5 7.09883 10.5 6.56839C10.5 6.03796 10.7107 5.52925 11.0858 5.15418ZM3.48207 12.6197C4.00604 12.7942 4.2893 13.3605 4.11474 13.8845L3.54784 15.5861L5.22528 15.1069C5.75632 14.9551 6.3098 15.2626 6.46153 15.7937C6.61325 16.3247 6.30576 16.8782 5.77472 17.0299L2.27472 18.0299C1.91807 18.1318 1.53431 18.0279 1.27776 17.76C1.02121 17.4921 0.934028 17.1042 1.05127 16.7523L2.21727 13.2523C2.39182 12.7284 2.95809 12.4451 3.48207 12.6197Z" />
	</symbol>

	<symbol id="menu-icon4" viewBox="0 0 18 20">
		<path
			d="M16 2H15V0H13V2H5V0H3V2H2C0.9 2 0 2.9 0 4V18C0 19.1 0.9 20 2 20H16C17.1 20 18 19.1 18 18V4C18 2.9 17.1 2 16 2ZM16 4V6H2V4H16ZM2 18V8H16V18H2Z" />
	</symbol>

	<symbol id="menu-icon5" viewBox="0 0 16 20">
		<path fill-rule="evenodd" clip-rule="evenodd"
			d="M0 2C0 1.46957 0.210714 0.960859 0.585786 0.585786C0.960859 0.210714 1.46957 0 2 0H14C14.5304 0 15.0391 0.210714 15.4142 0.585786C15.7893 0.960859 16 1.46957 16 2V18C16 18.5304 15.7893 19.0391 15.4142 19.4142C15.0391 19.7893 14.5304 20 14 20H2C1.46957 20 0.960859 19.7893 0.585786 19.4142C0.210714 19.0391 0 18.5304 0 18V2ZM14 2H2V18H14V2ZM4 7C4 6.73478 4.10536 6.48043 4.29289 6.29289C4.48043 6.10536 4.73478 6 5 6H11C11.2652 6 11.5196 6.10536 11.7071 6.29289C11.8946 6.48043 12 6.73478 12 7C12 7.26522 11.8946 7.51957 11.7071 7.70711C11.5196 7.89464 11.2652 8 11 8H5C4.73478 8 4.48043 7.89464 4.29289 7.70711C4.10536 7.51957 4 7.26522 4 7ZM5 11C4.73478 11 4.48043 11.1054 4.29289 11.2929C4.10536 11.4804 4 11.7348 4 12C4 12.2652 4.10536 12.5196 4.29289 12.7071C4.48043 12.8946 4.73478 13 5 13H8C8.26522 13 8.51957 12.8946 8.70711 12.7071C8.89464 12.5196 9 12.2652 9 12C9 11.7348 8.89464 11.4804 8.70711 11.2929C8.51957 11.1054 8.26522 11 8 11H5Z" />
	</symbol>

	<symbol id="menu-icon6" viewBox="0 0 18 18">
		<path
			d="M16 16H2V2H16M16 0H2C1.46957 0 0.960859 0.210714 0.585786 0.585786C0.210714 0.960859 0 1.46957 0 2V16C0 16.5304 0.210714 17.0391 0.585786 17.4142C0.960859 17.7893 1.46957 18 2 18H16C16.5304 18 17.0391 17.7893 17.4142 17.4142C17.7893 17.0391 18 16.5304 18 16V2C18 1.46957 17.7893 0.960859 17.4142 0.585786C17.0391 0.210714 16.5304 0 16 0ZM13.5 13.25C13.5 11.75 10.5 11 9 11C7.5 11 4.5 11.75 4.5 13.25V14H13.5M9 9.25C9.59674 9.25 10.169 9.01295 10.591 8.59099C11.0129 8.16903 11.25 7.59674 11.25 7C11.25 6.40326 11.0129 5.83097 10.591 5.40901C10.169 4.98705 9.59674 4.75 9 4.75C8.40326 4.75 7.83097 4.98705 7.40901 5.40901C6.98705 5.83097 6.75 6.40326 6.75 7C6.75 7.59674 6.98705 8.16903 7.40901 8.59099C7.83097 9.01295 8.40326 9.25 9 9.25Z" />
	</symbol>

	<symbol id="user-icon" viewBox="0 0 20 20">
		<path
			d="M3.85 15.1C4.7 14.45 5.65 13.9373 6.7 13.562C7.75 13.1867 8.85 12.9993 10 13C11.15 13 12.25 13.1877 13.3 13.563C14.35 13.9383 15.3 14.4507 16.15 15.1C16.7333 14.4167 17.1877 13.6417 17.513 12.775C17.8383 11.9083 18.0007 10.9833 18 10C18 7.78333 17.221 5.89567 15.663 4.337C14.105 2.77833 12.2173 1.99933 10 2C7.78333 2 5.89567 2.779 4.337 4.337C2.77833 5.895 1.99933 7.78267 2 10C2 10.9833 2.16267 11.9083 2.488 12.775C2.81333 13.6417 3.26733 14.4167 3.85 15.1ZM10 11C9.01667 11 8.18733 10.6627 7.512 9.988C6.83667 9.31333 6.49933 8.484 6.5 7.5C6.5 6.51667 6.83733 5.68733 7.512 5.012C8.18667 4.33667 9.016 3.99933 10 4C10.9833 4 11.8127 4.33733 12.488 5.012C13.1633 5.68667 13.5007 6.516 13.5 7.5C13.5 8.48333 13.1627 9.31267 12.488 9.988C11.8133 10.6633 10.984 11.0007 10 11ZM10 20C8.61667 20 7.31667 19.7373 6.1 19.212C4.88333 18.6867 3.825 17.9743 2.925 17.075C2.025 16.175 1.31267 15.1167 0.788 13.9C0.263333 12.6833 0.000666667 11.3833 0 10C0 8.61667 0.262667 7.31667 0.788 6.1C1.31333 4.88333 2.02567 3.825 2.925 2.925C3.825 2.025 4.88333 1.31267 6.1 0.788C7.31667 0.263333 8.61667 0.000666667 10 0C11.3833 0 12.6833 0.262667 13.9 0.788C15.1167 1.31333 16.175 2.02567 17.075 2.925C17.975 3.825 18.6877 4.88333 19.213 6.1C19.7383 7.31667 20.0007 8.61667 20 10C20 11.3833 19.7373 12.6833 19.212 13.9C18.6867 15.1167 17.9743 16.175 17.075 17.075C16.175 17.975 15.1167 18.6877 13.9 19.213C12.6833 19.7383 11.3833 20.0007 10 20Z" />
	</symbol>

	<symbol id="exit-icon" viewBox="0 0 18 18">
		<path
			d="M9 6L6 9M6 9L9 12M6 9L17 9M12 13.751L12 13.8C12 14.92 12 15.48 11.782 15.908C11.59 16.285 11.285 16.59 10.908 16.782C10.48 17 9.92 17 8.8 17L4.2 17C3.08 17 2.52 17 2.093 16.782C1.716 16.59 1.41 16.285 1.218 15.908C1 15.481 1 14.921 1 13.803L1 4.196C1 3.078 1 2.519 1.218 2.092C1.41012 1.71562 1.7164 1.40969 2.093 1.218C2.52 0.999999 3.079 0.999999 4.197 0.999999L8.803 0.999999C9.921 0.999999 10.481 1 10.908 1.218C11.2843 1.40974 11.5903 1.71569 11.782 2.092C12 2.52 12 3.08 12 4.2L12 4.25"
			stroke-width="2" stroke-linecap="round" stroke-linejoin="round" />
	</symbol>

	<symbol id="burger" viewBox="0 0 47 36">
		<path
			d="M22 2.5C22 1.11929 23.1193 0 24.5 0H44.5C45.8807 0 47 1.11929 47 2.5C47 3.88071 45.8807 5 44.5 5H24.5C23.1193 5 22 3.88071 22 2.5Z" />
		<path
			d="M11 18.5C11 17.1193 12.1193 16 13.5 16H44.5C45.8807 16 47 17.1193 47 18.5C47 19.8807 45.8807 21 44.5 21H13.5C12.1193 21 11 19.8807 11 18.5Z" />
		<path
			d="M0 33.5C0 32.1193 1.11929 31 2.5 31H44.5C45.8807 31 47 32.1193 47 33.5C47 34.8807 45.8807 36 44.5 36H2.5C1.11929 36 0 34.8807 0 33.5Z" />
	</symbol>

	<symbol id="location" viewBox="0 0 14 19">
		<path fill-rule="evenodd" clip-rule="evenodd"
			d="M7 19C7 19 14 10.4095 14 6.70588C14 3.00231 10.866 0 7 0C3.13401 0 0 3.00231 0 6.70588C0 10.4095 7 19 7 19ZM7 10.0588C8.93299 10.0588 10.5 8.55753 10.5 6.70588C10.5 4.85423 8.93299 3.35294 7 3.35294C5.06701 3.35294 3.5 4.85423 3.5 6.70588C3.5 8.55753 5.06701 10.0588 7 10.0588Z" />
	</symbol>

	<symbol id="tab-icon1" viewBox="0 0 25 25">
		<path
			d="M0 3.0303C0 1.35671 1.35671 0 3.0303 0H7.57576C9.24935 0 10.6061 1.35671 10.6061 3.0303V7.57576C10.6061 9.24935 9.24935 10.6061 7.57576 10.6061H3.0303C1.35671 10.6061 0 9.24935 0 7.57576V3.0303Z" />
		<path
			d="M14.3939 3.0303C14.3939 1.35671 15.7507 0 17.4242 0H21.9697C23.6433 0 25 1.35671 25 3.0303V7.57576C25 9.24935 23.6433 10.6061 21.9697 10.6061H17.4242C15.7507 10.6061 14.3939 9.24935 14.3939 7.57576V3.0303Z" />
		<path
			d="M0 17.4242C0 15.7507 1.35671 14.3939 3.0303 14.3939H7.57576C9.24935 14.3939 10.6061 15.7507 10.6061 17.4242V21.9697C10.6061 23.6433 9.24935 25 7.57576 25H3.0303C1.35671 25 0 23.6433 0 21.9697V17.4242Z" />
		<path
			d="M14.3939 17.4242C14.3939 15.7507 15.7507 14.3939 17.4242 14.3939H21.9697C23.6433 14.3939 25 15.7507 25 17.4242V21.9697C25 23.6433 23.6433 25 21.9697 25H17.4242C15.7507 25 14.3939 23.6433 14.3939 21.9697V17.4242Z" />
	</symbol>

	<symbol id="tab-icon2" viewBox="0 0 29 25">
		<path
			d="M0 3.0303C0 1.35671 1.36671 0 3.05263 0H7.63158C9.3175 0 10.6842 1.35671 10.6842 3.0303V7.57576C10.6842 9.24935 9.3175 10.6061 7.63158 10.6061H3.05263C1.36671 10.6061 0 9.24935 0 7.57576V3.0303Z" />
		<path
			d="M0 17.4242C0 15.7507 1.36671 14.3939 3.05263 14.3939H7.63158C9.3175 14.3939 10.6842 15.7507 10.6842 17.4242V21.9697C10.6842 23.6433 9.3175 25 7.63158 25H3.05263C1.36671 25 0 23.6433 0 21.9697V17.4242Z" />
		<path
			d="M12.9737 2.27273C12.9737 1.01753 13.9987 0 15.2632 0H26.7105C27.975 0 29 1.01753 29 2.27273C29 3.52792 27.975 4.54545 26.7105 4.54545H15.2632C13.9987 4.54545 12.9737 3.52792 12.9737 2.27273Z" />
		<path
			d="M12.9737 9.09091C12.9737 8.25411 13.657 7.57576 14.5 7.57576H27.4737C28.3166 7.57576 29 8.25411 29 9.09091C29 9.9277 28.3166 10.6061 27.4737 10.6061H14.5C13.657 10.6061 12.9737 9.9277 12.9737 9.09091Z" />
		<path
			d="M12.9737 16.6667C12.9737 15.4115 13.9987 14.3939 15.2632 14.3939H26.7105C27.975 14.3939 29 15.4115 29 16.6667C29 17.9219 27.975 18.9394 26.7105 18.9394H15.2632C13.9987 18.9394 12.9737 17.9219 12.9737 16.6667Z" />
		<path
			d="M12.9737 23.4848C12.9737 22.6481 13.657 21.9697 14.5 21.9697H27.4737C28.3166 21.9697 29 22.6481 29 23.4848C29 24.3216 28.3166 25 27.4737 25H14.5C13.657 25 12.9737 24.3216 12.9737 23.4848Z" />
	</symbol>

	<symbol id="tab-icon3" viewBox="0 0 25 25">
		<path
			d="M0 2C0 0.895431 0.895431 0 2 0H23C24.1046 0 25 0.895431 25 2C25 3.10457 24.1046 4 23 4H2C0.89543 4 0 3.10457 0 2Z" />
		<path
			d="M0 9C0 7.89543 0.895431 7 2 7H23C24.1046 7 25 7.89543 25 9C25 10.1046 24.1046 11 23 11H2C0.89543 11 0 10.1046 0 9Z" />
		<path
			d="M0 16C0 14.8954 0.895431 14 2 14H23C24.1046 14 25 14.8954 25 16C25 17.1046 24.1046 18 23 18H2C0.89543 18 0 17.1046 0 16Z" />
		<path
			d="M0 23C0 21.8954 0.895431 21 2 21H23C24.1046 21 25 21.8954 25 23C25 24.1046 24.1046 25 23 25H2C0.89543 25 0 24.1046 0 23Z" />
	</symbol>


	<symbol id="arrow-bottom" viewBox="0 0 21 10">
		<path d="M19.5 1.12134L12.6213 8.00002C11.4497 9.17159 9.55025 9.17159 8.37868 8.00002L1.5 1.12134" stroke-width="2"
			stroke-linecap="round" />
	</symbol>

	<symbol id="view-icon" viewBox="0 0 22 16">
		<path
			d="M11 5C10.2044 5 9.44129 5.31607 8.87868 5.87868C8.31607 6.44129 8 7.20435 8 8C8 8.79565 8.31607 9.55871 8.87868 10.1213C9.44129 10.6839 10.2044 11 11 11C11.7956 11 12.5587 10.6839 13.1213 10.1213C13.6839 9.55871 14 8.79565 14 8C14 7.20435 13.6839 6.44129 13.1213 5.87868C12.5587 5.31607 11.7956 5 11 5ZM11 13C9.67392 13 8.40215 12.4732 7.46447 11.5355C6.52678 10.5979 6 9.32608 6 8C6 6.67392 6.52678 5.40215 7.46447 4.46447C8.40215 3.52678 9.67392 3 11 3C12.3261 3 13.5979 3.52678 14.5355 4.46447C15.4732 5.40215 16 6.67392 16 8C16 9.32608 15.4732 10.5979 14.5355 11.5355C13.5979 12.4732 12.3261 13 11 13ZM11 0.5C6 0.5 1.73 3.61 0 8C1.73 12.39 6 15.5 11 15.5C16 15.5 20.27 12.39 22 8C20.27 3.61 16 0.5 11 0.5Z" />
	</symbol>

	<symbol id="filter-icon" viewBox="0 0 22 22">
		<path fill-rule="evenodd" clip-rule="evenodd"
			d="M4.88889 0.589287C5.97284 0.589431 7.02604 0.950384 7.88306 1.61545C8.74009 2.28052 9.35238 3.21202 9.62378 4.26366H19.5556V6.71324H9.62378C9.32344 7.86514 8.615 8.86812 7.63073 9.53491C6.64647 10.2017 5.45367 10.4867 4.27506 10.3367C3.09645 10.1867 2.01262 9.61196 1.22592 8.71979C0.439229 7.82762 0.00346622 6.67901 0 5.48845C0 4.18911 0.515078 2.94299 1.43192 2.02422C2.34877 1.10545 3.59227 0.589287 4.88889 0.589287ZM4.88889 7.93803C5.5372 7.93803 6.15895 7.67995 6.61737 7.22056C7.07579 6.76117 7.33333 6.13812 7.33333 5.48845C7.33333 4.83878 7.07579 4.21572 6.61737 3.75633C6.15895 3.29695 5.5372 3.03887 4.88889 3.03887C4.24058 3.03887 3.61883 3.29695 3.16041 3.75633C2.70198 4.21572 2.44444 4.83878 2.44444 5.48845C2.44444 6.13812 2.70198 6.76117 3.16041 7.22056C3.61883 7.67995 4.24058 7.93803 4.88889 7.93803ZM17.1111 21.4107C16.0272 21.4106 14.974 21.0496 14.1169 20.3846C13.2599 19.7195 12.6476 18.788 12.3762 17.7363H2.44444V15.2868H12.3762C12.6766 14.1349 13.385 13.1319 14.3693 12.4651C15.3535 11.7983 16.5463 11.5133 17.7249 11.6633C18.9035 11.8133 19.9874 12.388 20.7741 13.2802C21.5608 14.1724 21.9965 15.321 22 16.5116C22 17.8109 21.4849 19.057 20.5681 19.9758C19.6512 20.8946 18.4077 21.4107 17.1111 21.4107ZM17.1111 18.9611C17.7594 18.9611 18.3812 18.7031 18.8396 18.2437C19.298 17.7843 19.5556 17.1612 19.5556 16.5116C19.5556 15.8619 19.298 15.2388 18.8396 14.7794C18.3812 14.3201 17.7594 14.062 17.1111 14.062C16.4628 14.062 15.8411 14.3201 15.3826 14.7794C14.9242 15.2388 14.6667 15.8619 14.6667 16.5116C14.6667 17.1612 14.9242 17.7843 15.3826 18.2437C15.8411 18.7031 16.4628 18.9611 17.1111 18.9611Z" />
	</symbol>

	<symbol id="close" viewBox="0 0 29 29">
		<path
			d="M28.3863 28.3864C29.2046 27.5684 29.2046 26.242 28.3863 25.424L17.4624 14.5L28.3863 3.57601C29.2046 2.75793 29.2046 1.43161 28.3863 0.613564C27.568 -0.204479 26.2424 -0.204479 25.4242 0.613564L14.5003 11.5377L3.57635 0.613532C2.75808 -0.204511 1.43044 -0.204511 0.612168 0.613532C-0.204056 1.43158 -0.204056 2.75793 0.612168 3.57598L11.5381 14.5006L0.614214 25.424C-0.204056 26.2421 -0.204056 27.5684 0.614214 28.3865C1.43248 29.2045 2.75808 29.2045 3.57635 28.3865L14.5003 17.4628L25.4242 28.3864C26.2424 29.2045 27.568 29.2045 28.3863 28.3864Z" />
	</symbol>

	<symbol id="print" viewBox="0 0 30 30">
		<path
			d="M21 21.0019C21.3674 21.0019 21.722 21.1368 21.9966 21.381C22.2711 21.6251 22.4465 21.9615 22.4895 22.3264L22.5 22.5019V28.5019C22.5 28.8693 22.3651 29.2239 22.1209 29.4984C21.8768 29.773 21.5404 29.9484 21.1755 29.9914L21 30.0019H9C8.6326 30.0018 8.27799 29.867 8.00344 29.6228C7.72889 29.3787 7.55349 29.0423 7.5105 28.6774L7.5 28.5019V22.5019C7.50005 22.1345 7.63493 21.7799 7.87907 21.5053C8.12321 21.2308 8.45962 21.0554 8.8245 21.0124L9 21.0019H21ZM25.5 7.50189C26.6935 7.50189 27.8381 7.976 28.682 8.81991C29.5259 9.66383 30 10.8084 30 12.0019V22.5019C30 23.2975 29.6839 24.0606 29.1213 24.6232C28.5587 25.1858 27.7956 25.5019 27 25.5019H25.5V21.0019C25.5 20.2062 25.1839 19.4432 24.6213 18.8806C24.0587 18.318 23.2956 18.0019 22.5 18.0019H7.5C6.70435 18.0019 5.94129 18.318 5.37868 18.8806C4.81607 19.4432 4.5 20.2062 4.5 21.0019V25.5019H3C2.20435 25.5019 1.44129 25.1858 0.87868 24.6232C0.31607 24.0606 0 23.2975 0 22.5019V12.0019C0 10.8084 0.474106 9.66383 1.31802 8.81991C2.16193 7.976 3.30653 7.50189 4.5 7.50189H25.5ZM22.5 10.5019H19.5C19.1177 10.5023 18.75 10.6487 18.4719 10.9112C18.1939 11.1736 18.0266 11.5323 18.0042 11.914C17.9818 12.2956 18.106 12.6715 18.3514 12.9646C18.5968 13.2578 18.9449 13.4462 19.3245 13.4914L19.5 13.5019H22.5C22.8823 13.5015 23.25 13.3551 23.5281 13.0926C23.8061 12.8302 23.9734 12.4715 23.9958 12.0898C24.0182 11.7081 23.894 11.3323 23.6486 11.0391C23.4032 10.746 23.0551 10.5575 22.6755 10.5124L22.5 10.5019ZM22.5 0.00189209C22.8978 0.00189209 23.2794 0.159927 23.5607 0.441232C23.842 0.722536 24 1.10407 24 1.50189V4.50189H6V1.50189C6 1.10407 6.15804 0.722536 6.43934 0.441232C6.72064 0.159927 7.10218 0.00189209 7.5 0.00189209H22.5Z" />
	</symbol>

	<symbol id="mail" viewBox="0 0 30 24">
		<path
			d="M29.9975 2.38048C29.9976 2.64855 29.9315 2.9125 29.805 3.14886C29.6786 3.38522 29.4957 3.58668 29.2726 3.73533L14.9992 13.2517L0.7259 3.73533C0.43494 3.54174 0.214029 3.25964 0.0958568 2.93075C-0.0223152 2.60186 -0.0314697 2.24366 0.0697482 1.90917C0.170966 1.57467 0.377178 1.28165 0.65787 1.07346C0.938563 0.865262 1.27882 0.752963 1.6283 0.753174H28.3727C29.2726 0.753174 30 1.48309 30 2.38048H29.9975ZM29.9975 8.16981V20.7508C29.9975 21.4138 29.7341 22.0496 29.2654 22.5184C28.7966 22.9872 28.1608 23.2506 27.4978 23.2506H2.50069C1.83773 23.2506 1.20192 22.9872 0.733132 22.5184C0.264346 22.0496 0.000984341 21.4138 0.000984341 20.7508V8.16981C0.000984341 7.66987 0.55842 7.3724 0.973372 7.64987L14.9992 17.0013L29.0251 7.65237C29.1191 7.58953 29.2283 7.55334 29.3412 7.54766C29.4541 7.54198 29.5664 7.56702 29.6661 7.62012C29.7659 7.67321 29.8494 7.75238 29.9078 7.84917C29.9661 7.94597 29.9971 8.05679 29.9975 8.16981Z" />
	</symbol>

	<symbol id="schare" viewBox="0 0 30 30">
		<path fill-rule="evenodd" clip-rule="evenodd"
			d="M24.6437 7.50056C25.212 7.50056 25.7571 7.27478 26.159 6.87289C26.5609 6.47099 26.7867 5.92591 26.7867 5.35754C26.7867 4.78918 26.5609 4.2441 26.159 3.8422C25.7571 3.44031 25.212 3.21453 24.6437 3.21453C24.0753 3.21453 23.5302 3.44031 23.1283 3.8422C22.7264 4.2441 22.5006 4.78918 22.5006 5.35754C22.5006 5.92591 22.7264 6.47099 23.1283 6.87289C23.5302 7.27478 24.0753 7.50056 24.6437 7.50056ZM24.6437 10.7151C25.7395 10.7148 26.809 10.3785 27.7078 9.75151C28.6066 9.1245 29.2915 8.23694 29.6701 7.20853C30.0487 6.18013 30.1028 5.06035 29.8252 4.00021C29.5476 2.94008 28.9515 1.99059 28.1174 1.27979C27.2833 0.568989 26.2513 0.131077 25.1605 0.0251096C24.0698 -0.0808574 22.9727 0.150218 22.0174 0.687173C21.0621 1.22413 20.2944 2.04113 19.8179 3.028C19.3414 4.01487 19.179 5.12413 19.3526 6.20618L9.20966 11.2787C8.46784 10.5112 7.51369 9.98287 6.46957 9.76133C5.42544 9.53978 4.33894 9.63516 3.34939 10.0352C2.35984 10.4353 1.51234 11.1219 0.915582 12.0068C0.318822 12.8918 0 13.9348 0 15.0022C0 16.0696 0.318822 17.1126 0.915582 17.9976C1.51234 18.8825 2.35984 19.5691 3.34939 19.9691C4.33894 20.3692 5.42544 20.4646 6.46957 20.2431C7.51369 20.0215 8.46784 19.4931 9.20966 18.7257L19.3526 23.7961C19.1494 25.0599 19.4055 26.3547 20.0745 27.446C20.7434 28.5374 21.781 29.3532 22.9994 29.7457C24.2178 30.1382 25.5365 30.0815 26.7167 29.5858C27.8969 29.0902 28.8606 28.1883 29.4334 27.0436C30.0062 25.8989 30.1502 24.5868 29.8394 23.3451C29.5285 22.1034 28.7833 21.014 27.7387 20.2741C26.6941 19.5343 25.4191 19.1929 24.1446 19.3118C22.8701 19.4307 21.6803 20.002 20.7905 20.9223L10.6498 15.8498C10.7393 15.2875 10.7393 14.7147 10.6498 14.1525L20.7927 9.07996C21.7677 10.0872 23.1328 10.7151 24.6458 10.7151H24.6437ZM26.7867 24.6447C26.7867 25.2131 26.5609 25.7581 26.159 26.16C25.7571 26.5619 25.212 26.7877 24.6437 26.7877C24.0753 26.7877 23.5302 26.5619 23.1283 26.16C22.7264 25.7581 22.5006 25.2131 22.5006 24.6447C22.5006 24.0763 22.7264 23.5312 23.1283 23.1293C23.5302 22.7275 24.0753 22.5017 24.6437 22.5017C25.212 22.5017 25.7571 22.7275 26.159 23.1293C26.5609 23.5312 26.7867 24.0763 26.7867 24.6447ZM7.49954 15.0011C7.49954 15.5695 7.27375 16.1146 6.87186 16.5165C6.46997 16.9184 5.92488 17.1441 5.35652 17.1441C4.78816 17.1441 4.24307 16.9184 3.84118 16.5165C3.43929 16.1146 3.2135 15.5695 3.2135 15.0011C3.2135 14.4328 3.43929 13.8877 3.84118 13.4858C4.24307 13.0839 4.78816 12.8581 5.35652 12.8581C5.92488 12.8581 6.46997 13.0839 6.87186 13.4858C7.27375 13.8877 7.49954 14.4328 7.49954 15.0011Z"/>
	</symbol>

</svg>