<svg display="none" xmlns="http://www.w3.org/2000/svg">

	<symbol id="menu-icon1" width="18" height="18" viewBox="0 0 18 18" fill="none" xmlns="http://www.w3.org/2000/svg">
		<path
			d="M16 0H2C1.46957 0 0.960859 0.210714 0.585786 0.585786C0.210714 0.960859 0 1.46957 0 2V16C0 16.5304 0.210714 17.0391 0.585786 17.4142C0.960859 17.7893 1.46957 18 2 18H16C16.5304 18 17.0391 17.7893 17.4142 17.4142C17.7893 17.0391 18 16.5304 18 16V2C18 1.46957 17.7893 0.960859 17.4142 0.585786C17.0391 0.210714 16.5304 0 16 0ZM16 2V16H2V2H16ZM7 14L3 10L4.41 8.58L7 11.17L13.59 4.58L15 6" />
	</symbol>

	<symbol id="menu-icon2" width="22" height="18" viewBox="0 0 22 18" fill="none" xmlns="http://www.w3.org/2000/svg">
		<path
			d="M11 0L0 6L4 8.18V14.18L11 18L18 14.18V8.18L20 7.09V14H22V6L11 0ZM17.82 6L11 9.72L4.18 6L11 2.28L17.82 6ZM16 13L11 15.72L6 13V9.27L11 12L16 9.27V13Z" />
	</symbol>

	<symbol id="menu-icon3" width="19" height="20" viewBox="0 0 19 20" fill="none" xmlns="http://www.w3.org/2000/svg">
		<path fill-rule="evenodd" clip-rule="evenodd"
			d="M7.733 4.42339C9.82615 1.63253 13.9108 0.490327 17.1789 1.08452C17.5887 1.15902 17.9093 1.47969 17.9839 1.88945C18.5781 5.15672 17.4358 9.24118 14.6452 11.3352L13 12.5685V14.7354C13 15.8172 12.6491 16.8699 12 17.7354L11.2999 18.6685C11.1259 18.9004 10.8599 19.0454 10.5708 19.0659C10.2817 19.0864 9.99786 18.9805 9.7929 18.7755L8.7929 17.7755C8.40237 17.385 8.40237 16.7518 8.7929 16.3613C9.18342 15.9708 9.81659 15.9708 10.2071 16.3613L10.3919 16.5461L10.4 16.5354C10.7895 16.0161 11 15.3845 11 14.7354V14.0116L9.08124 15.3821C8.68346 15.6663 8.13856 15.6212 7.7929 15.2755L3.7929 11.2755C3.44723 10.9298 3.40214 10.3849 3.68627 9.98715L5.05681 8.06839H4.333C3.68395 8.06839 3.0524 8.27889 2.53314 8.66829L2.52227 8.67645L2.70711 8.86129C3.09763 9.25181 3.09763 9.88498 2.70711 10.2755C2.31659 10.666 1.68342 10.666 1.2929 10.2755L0.292896 9.2755C0.0879332 9.07054 -0.0180104 8.78672 0.00251276 8.49759C0.023036 8.20845 0.168007 7.94245 0.399866 7.7685L1.33287 7.0685C2.19835 6.41938 3.25115 6.06839 4.333 6.06839H6.49986L7.733 4.42339ZM7.80705 7.65899L5.80612 10.4603L8.6081 13.2623L11.4094 11.2614L13.4448 9.73555C15.3237 8.32527 16.3241 5.49048 16.1101 2.95832C13.5768 2.74424 10.7422 3.74442 9.333 5.62339L7.80705 7.65899ZM11.0858 5.15418C11.4609 4.77911 11.9696 4.56839 12.5 4.56839C13.0304 4.56839 13.5391 4.77911 13.9142 5.15418C14.2893 5.52925 14.5 6.03796 14.5 6.56839C14.5 7.09882 14.2893 7.60753 13.9142 7.98261C13.5391 8.35768 13.0304 8.56839 12.5 8.56839C11.9696 8.56839 11.4609 8.35768 11.0858 7.98261C10.7107 7.60753 10.5 7.09883 10.5 6.56839C10.5 6.03796 10.7107 5.52925 11.0858 5.15418ZM3.48207 12.6197C4.00604 12.7942 4.2893 13.3605 4.11474 13.8845L3.54784 15.5861L5.22528 15.1069C5.75632 14.9551 6.3098 15.2626 6.46153 15.7937C6.61325 16.3247 6.30576 16.8782 5.77472 17.0299L2.27472 18.0299C1.91807 18.1318 1.53431 18.0279 1.27776 17.76C1.02121 17.4921 0.934028 17.1042 1.05127 16.7523L2.21727 13.2523C2.39182 12.7284 2.95809 12.4451 3.48207 12.6197Z" />
	</symbol>

	<symbol id="menu-icon4" width="18" height="20" viewBox="0 0 18 20" fill="none" xmlns="http://www.w3.org/2000/svg">
		<path
			d="M16 2H15V0H13V2H5V0H3V2H2C0.9 2 0 2.9 0 4V18C0 19.1 0.9 20 2 20H16C17.1 20 18 19.1 18 18V4C18 2.9 17.1 2 16 2ZM16 4V6H2V4H16ZM2 18V8H16V18H2Z" />
	</symbol>

	<symbol id="menu-icon5" width="16" height="20" viewBox="0 0 16 20" fill="none" xmlns="http://www.w3.org/2000/svg">
		<path fill-rule="evenodd" clip-rule="evenodd"
			d="M0 2C0 1.46957 0.210714 0.960859 0.585786 0.585786C0.960859 0.210714 1.46957 0 2 0H14C14.5304 0 15.0391 0.210714 15.4142 0.585786C15.7893 0.960859 16 1.46957 16 2V18C16 18.5304 15.7893 19.0391 15.4142 19.4142C15.0391 19.7893 14.5304 20 14 20H2C1.46957 20 0.960859 19.7893 0.585786 19.4142C0.210714 19.0391 0 18.5304 0 18V2ZM14 2H2V18H14V2ZM4 7C4 6.73478 4.10536 6.48043 4.29289 6.29289C4.48043 6.10536 4.73478 6 5 6H11C11.2652 6 11.5196 6.10536 11.7071 6.29289C11.8946 6.48043 12 6.73478 12 7C12 7.26522 11.8946 7.51957 11.7071 7.70711C11.5196 7.89464 11.2652 8 11 8H5C4.73478 8 4.48043 7.89464 4.29289 7.70711C4.10536 7.51957 4 7.26522 4 7ZM5 11C4.73478 11 4.48043 11.1054 4.29289 11.2929C4.10536 11.4804 4 11.7348 4 12C4 12.2652 4.10536 12.5196 4.29289 12.7071C4.48043 12.8946 4.73478 13 5 13H8C8.26522 13 8.51957 12.8946 8.70711 12.7071C8.89464 12.5196 9 12.2652 9 12C9 11.7348 8.89464 11.4804 8.70711 11.2929C8.51957 11.1054 8.26522 11 8 11H5Z" />
	</symbol>

	<symbol id="menu-icon6" width="18" height="18" viewBox="0 0 18 18" fill="none" xmlns="http://www.w3.org/2000/svg">
		<path
			d="M16 16H2V2H16M16 0H2C1.46957 0 0.960859 0.210714 0.585786 0.585786C0.210714 0.960859 0 1.46957 0 2V16C0 16.5304 0.210714 17.0391 0.585786 17.4142C0.960859 17.7893 1.46957 18 2 18H16C16.5304 18 17.0391 17.7893 17.4142 17.4142C17.7893 17.0391 18 16.5304 18 16V2C18 1.46957 17.7893 0.960859 17.4142 0.585786C17.0391 0.210714 16.5304 0 16 0ZM13.5 13.25C13.5 11.75 10.5 11 9 11C7.5 11 4.5 11.75 4.5 13.25V14H13.5M9 9.25C9.59674 9.25 10.169 9.01295 10.591 8.59099C11.0129 8.16903 11.25 7.59674 11.25 7C11.25 6.40326 11.0129 5.83097 10.591 5.40901C10.169 4.98705 9.59674 4.75 9 4.75C8.40326 4.75 7.83097 4.98705 7.40901 5.40901C6.98705 5.83097 6.75 6.40326 6.75 7C6.75 7.59674 6.98705 8.16903 7.40901 8.59099C7.83097 9.01295 8.40326 9.25 9 9.25Z" />
	</symbol>

	<symbol id="user-icon" viewBox="0 0 20 20">
		<path
			d="M3.85 15.1C4.7 14.45 5.65 13.9373 6.7 13.562C7.75 13.1867 8.85 12.9993 10 13C11.15 13 12.25 13.1877 13.3 13.563C14.35 13.9383 15.3 14.4507 16.15 15.1C16.7333 14.4167 17.1877 13.6417 17.513 12.775C17.8383 11.9083 18.0007 10.9833 18 10C18 7.78333 17.221 5.89567 15.663 4.337C14.105 2.77833 12.2173 1.99933 10 2C7.78333 2 5.89567 2.779 4.337 4.337C2.77833 5.895 1.99933 7.78267 2 10C2 10.9833 2.16267 11.9083 2.488 12.775C2.81333 13.6417 3.26733 14.4167 3.85 15.1ZM10 11C9.01667 11 8.18733 10.6627 7.512 9.988C6.83667 9.31333 6.49933 8.484 6.5 7.5C6.5 6.51667 6.83733 5.68733 7.512 5.012C8.18667 4.33667 9.016 3.99933 10 4C10.9833 4 11.8127 4.33733 12.488 5.012C13.1633 5.68667 13.5007 6.516 13.5 7.5C13.5 8.48333 13.1627 9.31267 12.488 9.988C11.8133 10.6633 10.984 11.0007 10 11ZM10 20C8.61667 20 7.31667 19.7373 6.1 19.212C4.88333 18.6867 3.825 17.9743 2.925 17.075C2.025 16.175 1.31267 15.1167 0.788 13.9C0.263333 12.6833 0.000666667 11.3833 0 10C0 8.61667 0.262667 7.31667 0.788 6.1C1.31333 4.88333 2.02567 3.825 2.925 2.925C3.825 2.025 4.88333 1.31267 6.1 0.788C7.31667 0.263333 8.61667 0.000666667 10 0C11.3833 0 12.6833 0.262667 13.9 0.788C15.1167 1.31333 16.175 2.02567 17.075 2.925C17.975 3.825 18.6877 4.88333 19.213 6.1C19.7383 7.31667 20.0007 8.61667 20 10C20 11.3833 19.7373 12.6833 19.212 13.9C18.6867 15.1167 17.9743 16.175 17.075 17.075C16.175 17.975 15.1167 18.6877 13.9 19.213C12.6833 19.7383 11.3833 20.0007 10 20Z" />
	</symbol>

	<symbol id="exit-icon" viewBox="0 0 18 18">
		<path
			d="M9 6L6 9M6 9L9 12M6 9L17 9M12 13.751L12 13.8C12 14.92 12 15.48 11.782 15.908C11.59 16.285 11.285 16.59 10.908 16.782C10.48 17 9.92 17 8.8 17L4.2 17C3.08 17 2.52 17 2.093 16.782C1.716 16.59 1.41 16.285 1.218 15.908C1 15.481 1 14.921 1 13.803L1 4.196C1 3.078 1 2.519 1.218 2.092C1.41012 1.71562 1.7164 1.40969 2.093 1.218C2.52 0.999999 3.079 0.999999 4.197 0.999999L8.803 0.999999C9.921 0.999999 10.481 1 10.908 1.218C11.2843 1.40974 11.5903 1.71569 11.782 2.092C12 2.52 12 3.08 12 4.2L12 4.25"
			stroke-width="2" stroke-linecap="round" stroke-linejoin="round" />
	</symbol>

	<symbol id="burger" viewBox="0 0 47 36">
		<path
			d="M22 2.5C22 1.11929 23.1193 0 24.5 0H44.5C45.8807 0 47 1.11929 47 2.5C47 3.88071 45.8807 5 44.5 5H24.5C23.1193 5 22 3.88071 22 2.5Z" />
		<path
			d="M11 18.5C11 17.1193 12.1193 16 13.5 16H44.5C45.8807 16 47 17.1193 47 18.5C47 19.8807 45.8807 21 44.5 21H13.5C12.1193 21 11 19.8807 11 18.5Z" />
		<path
			d="M0 33.5C0 32.1193 1.11929 31 2.5 31H44.5C45.8807 31 47 32.1193 47 33.5C47 34.8807 45.8807 36 44.5 36H2.5C1.11929 36 0 34.8807 0 33.5Z" />
	</symbol>

	<symbol id="location" viewBox="0 0 14 19">
		<path fill-rule="evenodd" clip-rule="evenodd"
			d="M7 19C7 19 14 10.4095 14 6.70588C14 3.00231 10.866 0 7 0C3.13401 0 0 3.00231 0 6.70588C0 10.4095 7 19 7 19ZM7 10.0588C8.93299 10.0588 10.5 8.55753 10.5 6.70588C10.5 4.85423 8.93299 3.35294 7 3.35294C5.06701 3.35294 3.5 4.85423 3.5 6.70588C3.5 8.55753 5.06701 10.0588 7 10.0588Z"/>
	</symbol>

</svg>